<svg width="24" height="24" viewBox="0 0 24 24" fill="none" xmlns="http://www.w3.org/2000/svg">
<g id="registered 1" clip-path="url(#clip0_105_14161)">
<path id="Vector" d="M9.75 8.25C10.1642 8.25 10.5 7.91421 10.5 7.5C10.5 7.08579 10.1642 6.75 9.75 6.75C9.33579 6.75 9 7.08579 9 7.5C9 7.91421 9.33579 8.25 9.75 8.25Z" fill="#F2F2F2"/>
<path id="Vector_2" d="M5.25 4.5V13.5H14.25V4.5H5.25ZM12.75 12C12.75 12.4125 12.4125 12.75 12 12.75H7.5C7.0875 12.75 6.75 12.4125 6.75 12V10.9725C6.75 10.0575 7.2 9.2625 7.89 8.7675C7.6425 8.4075 7.5 7.965 7.5 7.5C7.5 6.2625 8.5125 5.25 9.75 5.25C10.9875 5.25 12 6.2625 12 7.5C12 7.965 11.8575 8.4075 11.61 8.7675C12.3 9.2625 12.75 10.0575 12.75 10.9725V12Z" fill="#F2F2F2"/>
<path id="Vector_3" d="M10.0294 9.75H9.47055C8.79742 9.75 8.25 10.2979 8.25 10.9709V11.25H11.25V10.9709C11.25 10.2978 10.7024 9.75 10.0294 9.75Z" fill="#F2F2F2"/>
<path id="Vector_4" d="M17.25 0H2.25C1.0125 0 0 1.0125 0 2.25V21.75C0 22.9875 1.0125 24 2.25 24H14.52C13.5525 23.2275 12.81 22.1925 12.39 21H4.5C4.0875 21 3.75 20.6625 3.75 20.25C3.75 19.8375 4.0875 19.5 4.5 19.5H12.045C12.015 19.2525 12 19.005 12 18.75C12 18.495 12.015 18.2475 12.045 18H4.5C4.0875 18 3.75 17.6625 3.75 17.25C3.75 16.8375 4.0875 16.5 4.5 16.5H12.39C12.5775 15.9675 12.8325 15.465 13.14 15H5.25C4.425 15 3.75 14.325 3.75 13.5V4.5C3.75 3.675 4.425 3 5.25 3H14.25C15.075 3 15.75 3.675 15.75 4.5V12.705C16.6575 12.255 17.6775 12 18.75 12C19.005 12 19.2525 12.015 19.5 12.045V2.25C19.5 1.0125 18.4875 0 17.25 0Z" fill="#F2F2F2"/>
<path id="Vector_5" d="M18.75 13.5C15.855 13.5 13.5 15.855 13.5 18.75C13.5 21.645 15.855 24 18.75 24C21.645 24 24 21.645 24 18.75C24 15.855 21.645 13.5 18.75 13.5ZM20.7825 18.33L18.885 20.2275C18.7425 20.37 18.5475 20.4525 18.3525 20.4525C18.15 20.4525 17.9625 20.37 17.82 20.2275L16.7175 19.125C16.425 18.8325 16.425 18.36 16.7175 18.0675C17.01 17.775 17.49 17.775 17.7825 18.0675L18.3525 18.6375L19.7175 17.2725C20.01 16.98 20.49 16.98 20.7825 17.2725C21.075 17.565 21.075 18.0375 20.7825 18.33Z" fill="#F2F2F2"/>
</g>
<defs>
<clipPath id="clip0_105_14161">
<rect width="24" height="24" fill="white"/>
</clipPath>
</defs>
</svg>
