<svg width="24" height="24" viewBox="0 0 24 24" fill="none" xmlns="http://www.w3.org/2000/svg">
<g id="briefcase (1)" clip-path="url(#clip0_105_14176)">
<g id="Group">
<g id="Group_2">
<g id="Group_3">
<path id="Vector" d="M22 5.00002H17V3.99999C17 2.89697 16.1031 1.99997 15 1.99997H9C7.89698 1.99997 6.99998 2.89692 6.99998 3.99999V4.99997H2.00002C0.896953 5.00002 0 5.89697 0 6.99998V9.99998C0 11.103 0.896953 12 2.00002 12H10V11.5C10 11.2236 10.2237 11 10.5 11H13.5C13.7764 11 14.0001 11.2236 14.0001 11.5V12H22.0001C23.103 12 24 11.103 24 9.99998V6.99998C24 5.89697 23.103 5.00002 22 5.00002ZM15 5.00002H9V3.99999H15V5.00002Z" fill="#F2F2F2"/>
<path id="Vector_2" d="M23.7226 12.5395C23.5522 12.4551 23.3486 12.4746 23.1982 12.5888C22.8427 12.8579 22.4287 13 21.9999 13H14V14.5C14 14.7764 13.7764 15 13.5 15H10.5C10.2236 15 9.99998 14.7764 9.99998 14.5V13H2.00002C1.5713 13 1.15725 12.8579 0.80175 12.5888C0.650859 12.4736 0.44775 12.4541 0.277312 12.5395C0.107437 12.624 0 12.7973 0 12.9873V20C0 21.103 0.896953 22 2.00002 22H22C23.103 22 24 21.1031 24 20V12.9873C24 12.7973 23.8926 12.624 23.7226 12.5395Z" fill="#F2F2F2"/>
</g>
</g>
</g>
</g>
<defs>
<clipPath id="clip0_105_14176">
<rect width="24" height="24" fill="white"/>
</clipPath>
</defs>
</svg>
