<svg width="12" height="12" viewBox="0 0 12 12" fill="none" xmlns="http://www.w3.org/2000/svg">
<g clip-path="url(#clip0_119_22790)">
<path d="M7.4061 5.9997L9.86395 8.45737C9.95108 8.54483 10 8.66325 10 8.7867C10 8.91015 9.95108 9.02857 9.86395 9.11604L9.11657 9.86337C9.0291 9.95049 8.91067 9.9994 8.78721 9.9994C8.66375 9.9994 8.54532 9.95049 8.45785 9.86337L6 7.4057L3.54215 9.86337C3.45468 9.95049 3.33625 9.9994 3.21279 9.9994C3.08933 9.9994 2.9709 9.95049 2.88343 9.86337L2.13605 9.11604C2.04892 9.02857 2 8.91015 2 8.7867C2 8.66325 2.04892 8.54483 2.13605 8.45737L4.5939 5.9997L2.13605 3.54204C2.04892 3.45457 2 3.33615 2 3.2127C2 3.08925 2.04892 2.97083 2.13605 2.88337L2.88343 2.13604C2.9709 2.04892 3.08933 2 3.21279 2C3.33625 2 3.45468 2.04892 3.54215 2.13604L6 4.5937L8.45785 2.13604C8.54532 2.04892 8.66375 2 8.78721 2C8.91067 2 9.0291 2.04892 9.11657 2.13604L9.86395 2.88337C9.95108 2.97083 10 3.08925 10 3.2127C10 3.33615 9.95108 3.45457 9.86395 3.54204L7.4061 5.9997Z" fill="white"/>
</g>
<defs>
<clipPath id="clip0_119_22790">
<rect width="12" height="12" fill="white"/>
</clipPath>
</defs>
</svg>
