<svg width="24" height="24" viewBox="0 0 24 24" fill="none" xmlns="http://www.w3.org/2000/svg">
<g id="edit/1">
<path id="Icon" d="M5.01193 16.9642L5.96062 17.2804H5.96062L5.01193 16.9642ZM5.76112 14.7167L4.81244 14.4004H4.81244L5.76112 14.7167ZM6.53416 13.4658L7.24127 14.173L7.24127 14.1729L6.53416 13.4658ZM14 6L13.2929 5.29289V5.29289L14 6ZM18 10L18.7071 10.7071H18.7071L18 10ZM10.5342 17.4658L9.82706 16.7587L9.82706 16.7587L10.5342 17.4658ZM9.28335 18.2389L9.59958 19.1876H9.59958L9.28335 18.2389ZM7.03579 18.9881L7.35202 19.9368L7.35202 19.9368L7.03579 18.9881ZM10.1241 17.8486L9.52188 17.0503L9.52188 17.0503L10.1241 17.8486ZM9.80905 18.0433L9.36435 17.1476L9.80905 18.0433ZM18.9636 7.11197L18.0676 7.55599V7.55599L18.9636 7.11197ZM18.9636 8.88803L18.0676 8.44402V8.44402L18.9636 8.88803ZM15.112 5.03639L15.556 5.93241V5.93241L15.112 5.03639ZM16.888 5.03639L16.444 5.93241V5.93241L16.888 5.03639ZM5.95671 14.191L6.85239 14.6357L6.85239 14.6357L5.95671 14.191ZM6.15144 13.8759L5.35312 13.2736L5.35312 13.2736L6.15144 13.8759ZM4.63924 18.7547L3.69733 19.0906L4.63924 18.7547ZM5.24526 19.3608L4.90938 20.3027L4.90938 20.3027L5.24526 19.3608ZM13.7071 6.29293C13.3166 5.90241 12.6834 5.90241 12.2929 6.29293C11.9024 6.68345 11.9024 7.31662 12.2929 7.70714L13.7071 6.29293ZM16.2929 11.7071C16.6834 12.0977 17.3166 12.0977 17.7071 11.7071C18.0976 11.3166 18.0976 10.6835 17.7071 10.2929L16.2929 11.7071ZM5.96062 17.2804L6.7098 15.0329L4.81244 14.4004L4.06325 16.648L5.96062 17.2804ZM7.24127 14.1729L14.7071 6.70711L13.2929 5.29289L5.82706 12.7587L7.24127 14.1729ZM17.2929 9.2929L9.82706 16.7587L11.2413 18.1729L18.7071 10.7071L17.2929 9.2929ZM8.96712 17.2902L6.71956 18.0394L7.35202 19.9368L9.59958 19.1876L8.96712 17.2902ZM9.82706 16.7587C9.60897 16.9768 9.56477 17.0179 9.52188 17.0503L10.7264 18.6469C10.9059 18.5114 11.0609 18.3533 11.2413 18.1729L9.82706 16.7587ZM9.59958 19.1876C9.84153 19.1069 10.0523 19.039 10.2538 18.939L9.36435 17.1476C9.31622 17.1715 9.25972 17.1927 8.96712 17.2902L9.59958 19.1876ZM9.52188 17.0503C9.47249 17.0875 9.41976 17.1201 9.36435 17.1476L10.2538 18.939C10.42 18.8564 10.5782 18.7587 10.7264 18.6469L9.52188 17.0503ZM17.2929 6.70711C17.8952 7.30945 18.0131 7.44601 18.0676 7.55599L19.8596 6.66796C19.6227 6.18975 19.1953 5.78105 18.7071 5.2929L17.2929 6.70711ZM18.7071 10.7071C19.1953 10.219 19.6227 9.81026 19.8596 9.33205L18.0676 8.44402C18.0131 8.554 17.8952 8.69055 17.2929 9.2929L18.7071 10.7071ZM18.0676 7.55599C18.2062 7.83576 18.2062 8.16424 18.0676 8.44402L19.8596 9.33205C20.2756 8.49272 20.2756 7.50729 19.8596 6.66796L18.0676 7.55599ZM14.7071 6.70711C15.3095 6.10477 15.446 5.98691 15.556 5.93241L14.668 4.14037C14.1898 4.37734 13.7811 4.80474 13.2929 5.29289L14.7071 6.70711ZM18.7071 5.2929C18.219 4.80474 17.8103 4.37735 17.3321 4.14037L16.444 5.93241C16.554 5.98691 16.6906 6.10477 17.2929 6.70711L18.7071 5.2929ZM15.556 5.93241C15.8358 5.79377 16.1642 5.79377 16.444 5.93241L17.3321 4.14037C16.4927 3.72445 15.5073 3.72445 14.668 4.14037L15.556 5.93241ZM6.7098 15.0329C6.80734 14.7403 6.8285 14.6838 6.85239 14.6357L5.06104 13.7463C4.96102 13.9477 4.89309 14.1585 4.81244 14.4004L6.7098 15.0329ZM5.82706 12.7587C5.64672 12.9391 5.48857 13.0941 5.35312 13.2736L6.94975 14.4781C6.98211 14.4352 7.02319 14.391 7.24127 14.173L5.82706 12.7587ZM6.85239 14.6357C6.8799 14.5803 6.9125 14.5275 6.94975 14.4781L5.35312 13.2736C5.24135 13.4218 5.14357 13.58 5.06104 13.7463L6.85239 14.6357ZM4.06325 16.648C3.9067 17.1176 3.76639 17.5354 3.68652 17.8753C3.61013 18.2004 3.53797 18.6437 3.69733 19.0906L5.58114 18.4189C5.62466 18.5409 5.57599 18.5775 5.63349 18.3328C5.6875 18.1029 5.79146 17.7879 5.96062 17.2804L4.06325 16.648ZM6.71956 18.0394C6.21211 18.2085 5.89706 18.3125 5.6672 18.3665C5.42249 18.424 5.45911 18.3753 5.58114 18.4189L4.90938 20.3027C5.3563 20.462 5.79963 20.3899 6.1247 20.3135C6.4646 20.2336 6.88238 20.0933 7.35202 19.9368L6.71956 18.0394ZM3.69733 19.0906C3.89897 19.6561 4.34394 20.101 4.90938 20.3027L5.58114 18.4189L5.58114 18.4189L3.69733 19.0906ZM12.2929 7.70714L16.2929 11.7071L17.7071 10.2929L13.7071 6.29293L12.2929 7.70714Z" fill="#333333"/>
</g>
</svg>
