<svg width="24" height="24" viewBox="0 0 24 24" fill="none" xmlns="http://www.w3.org/2000/svg">
<g id="customer-support (1)">
<g id="Group">
<path id="Vector" d="M20.2161 18.8594C19.7328 17.4209 17.8063 16.5204 16.4328 15.9168C15.8947 15.6811 14.405 15.2813 14.226 14.6038C14.1619 14.3597 14.1705 14.1295 14.2231 13.909C14.1403 13.9248 14.0563 13.9342 13.9694 13.9342H13.0744C12.36 13.9342 11.7794 13.3529 11.7794 12.6389C11.7794 11.9254 12.3602 11.3453 13.0744 11.3453H13.9694C14.2651 11.3453 14.5454 11.4454 14.7715 11.6239C15.1029 11.5798 15.4226 11.509 15.7207 11.4161C16.1121 10.596 16.4174 9.61535 16.4858 8.77127C16.7779 5.15975 14.5639 3.04679 11.3894 3.41207C9.08132 3.67775 7.70252 5.39879 7.55348 7.61447C7.40276 9.87287 8.24012 11.5409 9.12956 12.7644C9.51908 13.2994 9.92828 13.6433 9.8654 14.2879C9.79244 15.0502 8.9774 15.2626 8.39444 15.4968C7.70372 15.7742 6.95972 16.1952 6.60836 16.3898C5.39804 17.0582 4.06964 17.8632 3.77108 18.9643C3.10988 21.4046 5.34284 22.1438 7.18628 22.4851C8.76836 22.777 10.5523 22.8 12.0196 22.8C14.6738 22.8 19.4464 22.6937 20.2161 20.6986C20.435 20.1324 20.3412 19.2302 20.2161 18.8594Z" fill="#F2F2F2"/>
<path id="Vector_2" d="M14.5358 12.2743C14.4144 12.0893 14.2068 11.9664 13.9699 11.9664H13.0749C12.7015 11.9664 12.4003 12.2681 12.4003 12.6396C12.4003 13.0126 12.7015 13.3147 13.0749 13.3147H13.9699C14.2312 13.3147 14.453 13.1657 14.5648 12.9502C15.8126 12.852 16.8979 12.4709 17.6596 11.9081C17.8346 12.0209 18.0415 12.0869 18.2647 12.0869H18.3208C18.9429 12.0869 19.446 11.5834 19.446 10.9606V8.71224C19.446 8.2644 19.1834 7.878 18.8047 7.69848C18.6395 4.08816 15.6508 1.2 11.9999 1.2C8.34907 1.2 5.35987 4.08816 5.19547 7.69848C4.81603 7.87824 4.55371 8.2644 4.55371 8.71224V10.9606C4.55371 11.5834 5.05723 12.0869 5.67787 12.0869H5.73475C6.35587 12.0869 6.85963 11.5834 6.85963 10.9606V8.71224C6.85963 8.27088 6.60451 7.89024 6.23371 7.70616C6.39427 4.66416 8.91859 2.23944 11.9999 2.23944C15.0801 2.23944 17.6056 4.66416 17.7655 7.70616C17.3952 7.89048 17.1403 8.27088 17.1403 8.71224V10.9606C17.1403 11.1098 17.1693 11.2488 17.2204 11.3786C16.5647 11.8478 15.6103 12.1822 14.5358 12.2743Z" fill="#F2F2F2"/>
</g>
</g>
</svg>
