<svg width="96" height="96" viewBox="0 0 96 96" fill="none" xmlns="http://www.w3.org/2000/svg">
<g clip-path="url(#clip0_1_2)">
<path d="M16 42C12.68 42 10 44.68 10 48C10 51.32 12.68 54 16 54C19.32 54 22 51.32 22 48C22 44.68 19.32 42 16 42ZM16 18C12.68 18 10 20.68 10 24C10 27.32 12.68 30 16 30C19.32 30 22 27.32 22 24C22 20.68 19.32 18 16 18ZM16 66C12.68 66 10 68.72 10 72C10 75.28 12.72 78 16 78C19.28 78 22 75.28 22 72C22 68.72 19.32 66 16 66ZM28 76H84V68H28V76ZM28 52H84V44H28V52ZM28 20V28H84V20H28Z" fill="black"/>
</g>
</svg>
