<svg width="24" height="24" viewBox="0 0 24 24" fill="none" xmlns="http://www.w3.org/2000/svg">
<g id="search (1)" clip-path="url(#clip0_105_14151)">
<path id="Vector" d="M13.7529 13.761C13.1146 14.3992 12.2679 14.7502 11.3649 14.7502C10.4619 14.7502 9.61511 14.3992 8.97686 13.761C8.33861 13.1235 7.98836 12.276 7.98836 11.3737C7.98836 10.4715 8.33936 9.62399 8.97686 8.98574C9.61511 8.34749 10.4619 7.99649 11.3649 7.99649C12.2679 7.99649 13.1146 8.34749 13.7529 8.98574C14.3911 9.62324 14.7414 10.4715 14.7414 11.3737C14.7414 12.276 14.3911 13.1235 13.7529 13.761ZM23.9536 12.0472C23.9536 18.6637 18.5701 24.0472 11.9536 24.0472C5.33711 24.0472 -0.0463867 18.6637 -0.0463867 12.0472C-0.0463867 5.43074 5.33711 0.0472412 11.9536 0.0472412C18.5701 0.0472412 23.9536 5.42999 23.9536 12.0472ZM17.2929 16.2232L15.3084 14.2335C15.9114 13.4062 16.2414 12.4162 16.2414 11.373C16.2414 10.0702 15.7344 8.84549 14.8134 7.92449C13.8924 7.00349 12.6684 6.49574 11.3649 6.49574C10.0614 6.49574 8.83736 7.00349 7.91636 7.92449C6.99536 8.84549 6.48836 10.0702 6.48836 11.373C6.48836 12.6757 6.99611 13.9005 7.91636 14.8207C8.83736 15.7417 10.0614 16.2495 11.3649 16.2495C12.4186 16.2495 13.4191 15.912 14.2516 15.297L16.2309 17.2815C16.3771 17.4285 16.5691 17.502 16.7619 17.502C16.9539 17.502 17.1451 17.4292 17.2914 17.283C17.5846 16.992 17.5846 16.5165 17.2929 16.2232Z" fill="#F2F2F2"/>
</g>
<defs>
<clipPath id="clip0_105_14151">
<rect width="24" height="24" fill="white"/>
</clipPath>
</defs>
</svg>
