<svg width="24" height="24" viewBox="0 0 24 24" fill="none" xmlns="http://www.w3.org/2000/svg">
<g id="stats 1" clip-path="url(#clip0_145_15432)">
<g id="Group">
<g id="Group_2">
<path id="Vector" d="M21.6796 1.5437C20.4002 1.5437 19.3592 2.58461 19.3592 3.86416C19.3592 4.56813 19.6747 5.1994 20.1712 5.62531L15.8874 12.7925C15.6449 12.7063 15.3842 12.659 15.1125 12.659C14.8907 12.659 14.6763 12.6909 14.473 12.7493L10.8123 8.82328C10.9531 8.52417 11.0322 8.19055 11.0322 7.83866C11.0322 6.55916 9.99126 5.5182 8.71175 5.5182C7.43225 5.5182 6.39129 6.55911 6.39129 7.83866C6.39129 8.49632 6.66678 9.09051 7.10782 9.51314L2.64939 17.8391C2.54181 17.8238 2.43207 17.8153 2.32037 17.8153C1.041 17.8153 0 18.8563 0 20.1359C0 21.4154 1.041 22.4563 2.32046 22.4563C3.59992 22.4563 4.64092 21.4154 4.64092 20.1359C4.64092 19.4952 4.37992 18.9145 3.9588 18.4941L8.43135 10.1415C8.52336 10.1527 8.61683 10.1591 8.71175 10.1591C9.10579 10.1591 9.47708 10.0601 9.8024 9.88612L13.2556 13.5895C12.9646 13.9772 12.792 14.4585 12.792 14.9794C12.792 16.2589 13.833 17.2999 15.1125 17.2999C16.392 17.2999 17.4329 16.259 17.4329 14.9794C17.4329 14.5078 17.2912 14.0688 17.0485 13.7023L21.5444 6.18045C21.5891 6.18303 21.6342 6.18472 21.6797 6.18472C22.9591 6.18472 24.0001 5.14381 24.0001 3.86426C24.0001 2.58471 22.9591 1.5437 21.6796 1.5437ZM2.32046 20.9929C1.84787 20.9929 1.46344 20.6084 1.46344 20.1359C1.46344 19.6633 1.84791 19.2788 2.32046 19.2788C2.79301 19.2788 3.17748 19.6633 3.17748 20.1359C3.17748 20.6084 2.79306 20.9929 2.32046 20.9929ZM8.71175 8.69568C8.23916 8.69568 7.85473 8.31126 7.85473 7.83866C7.85473 7.36607 8.2392 6.98164 8.71175 6.98164C9.1843 6.98164 9.56877 7.36607 9.56877 7.83866C9.56877 8.31126 9.1843 8.69568 8.71175 8.69568ZM15.1125 15.8365C14.6399 15.8365 14.2554 15.452 14.2554 14.9794C14.2554 14.5068 14.6399 14.1224 15.1125 14.1224C15.585 14.1224 15.9695 14.5068 15.9695 14.9794C15.9695 15.452 15.585 15.8365 15.1125 15.8365ZM21.6796 4.72123C21.207 4.72123 20.8226 4.33681 20.8226 3.86421C20.8226 3.39161 21.2071 3.00719 21.6796 3.00719C22.1522 3.00719 22.5367 3.39157 22.5367 3.86416C22.5367 4.33676 22.1522 4.72123 21.6796 4.72123Z" fill="black"/>
</g>
</g>
</g>
<defs>
<clipPath id="clip0_145_15432">
<rect width="24" height="24" fill="white"/>
</clipPath>
</defs>
</svg>
