<svg width="24" height="24" viewBox="0 0 24 24" fill="none" xmlns="http://www.w3.org/2000/svg">
<g id="user" clip-path="url(#clip0_105_14126)">
<g id="Group">
<g id="Group_2">
<path id="Vector" d="M12 11.2969C10.0616 11.2969 8.48438 12.8741 8.48438 14.8126C8.48438 16.751 10.0616 18.3282 12 18.3282C13.9384 18.3282 15.5156 16.751 15.5156 14.8126C15.5156 12.8741 13.9384 11.2969 12 11.2969Z" fill="#F2F2F2"/>
</g>
</g>
<g id="Group_3">
<g id="Group_4">
<path id="Vector_2" d="M15.4336 18.3282C14.5459 19.1953 13.3359 19.7344 12 19.7344C10.6641 19.7344 9.45408 19.1953 8.56636 18.3282C7.6508 19.2226 7.07812 20.4661 7.07812 21.8438V23.2969C7.07812 23.6856 7.39261 24.0001 7.78125 24.0001H16.2188C16.6074 24.0001 16.9219 23.6856 16.9219 23.2969V21.8438C16.9219 20.466 16.3492 19.2226 15.4336 18.3282Z" fill="#F2F2F2"/>
</g>
</g>
<g id="Group_5">
<g id="Group_6">
<path id="Vector_3" d="M4.96875 11.2969C3.03033 11.2969 1.45312 12.8741 1.45312 14.8126C1.45312 16.751 3.03033 18.3282 4.96875 18.3282C6.90717 18.3282 8.48438 16.751 8.48438 14.8126C8.48438 12.8741 6.90717 11.2969 4.96875 11.2969Z" fill="#F2F2F2"/>
</g>
</g>
<g id="Group_7">
<g id="Group_8">
<path id="Vector_4" d="M5.67188 21.8438C5.67188 21.0466 5.8305 20.2895 6.10402 19.5893C5.73797 19.6765 5.36109 19.7344 4.96875 19.7344C3.63286 19.7344 2.37595 19.1953 1.48823 18.3282C0.572672 19.2225 0 20.466 0 21.8438V23.2969C0 23.6856 0.314484 24.0001 0.703125 24.0001H5.80139C5.72259 23.779 5.67188 23.5446 5.67188 23.2969V21.8438Z" fill="#F2F2F2"/>
</g>
</g>
<g id="Group_9">
<g id="Group_10">
<path id="Vector_5" d="M19.0312 11.2969C17.0928 11.2969 15.5156 12.8741 15.5156 14.8126C15.5156 16.751 17.0928 18.3282 19.0312 18.3282C20.9697 18.3282 22.5469 16.751 22.5469 14.8126C22.5469 12.8741 20.9697 11.2969 19.0312 11.2969Z" fill="#F2F2F2"/>
</g>
</g>
<g id="Group_11">
<g id="Group_12">
<path id="Vector_6" d="M16.4644 3.27757L13.7652 2.8848L12.5581 0.360492C12.3219 -0.120164 11.5336 -0.120164 11.2974 0.360492L10.0902 2.8848L7.39104 3.27757C6.81616 3.36101 6.58507 4.07098 7.00104 4.47644L8.95455 6.38051L8.49312 9.06874C8.3944 9.64296 9.00021 10.0816 9.51279 9.80965L11.9277 8.54074L14.3427 9.80965C14.853 10.0803 15.4615 9.64563 15.3624 9.06874L14.9009 6.38051L16.8544 4.47644C17.2704 4.07098 17.0393 3.36101 16.4644 3.27757Z" fill="#F2F2F2"/>
</g>
</g>
<g id="Group_13">
<g id="Group_14">
<path id="Vector_7" d="M22.5118 18.3282C21.6241 19.1953 20.3672 19.7344 19.0313 19.7344C18.6389 19.7344 18.262 19.6765 17.896 19.5893C18.1695 20.2895 18.3281 21.0466 18.3281 21.8438V23.2969C18.3281 23.5446 18.2774 23.779 18.1986 24.0001H23.2969C23.6855 24.0001 24 23.6856 24 23.2969V21.8438C24 20.466 23.4273 19.2226 22.5118 18.3282Z" fill="#F2F2F2"/>
</g>
</g>
</g>
<defs>
<clipPath id="clip0_105_14126">
<rect width="24" height="24" fill="white"/>
</clipPath>
</defs>
</svg>
